<svg xmlns="http://www.w3.org/2000/svg" viewBox="0 0 48 48">
<path fill="#EA4335" d="M24 9.5c3.1 0 5.9 1.1 8.1 3.2l6-6C34.6 2.9 29.6 1 24 1 14.6 1 6.5 6.7 3 14.7l7.5 5.8C12.2 13.9 17.6 9.5 24 9.5z"/>
<path fill="#4285F4" d="M46.5 24.5c0-1.6-.1-3.1-.4-4.5H24v9h12.6c-.5 2.9-2.1 5.3-4.5 7l7.1 5.5c4.1-3.8 6.3-9.3 6.3-17z"/>
<path fill="#FBBC05" d="M10.5 28.5c-.5-1.5-.8-3-.8-4.5s.3-3 .8-4.5L3 13.7C1.7 16.8 1 20.3 1 24s.7 7.2 2 10.3l7.5-5.8z"/>
<path fill="#34A853" d="M24 47c6.5 0 12-2.1 16-5.7l-7.1-5.5c-2 1.3-4.6 2.1-8.9 2.1-6.4 0-11.8-4.3-13.7-10.1L3 34.3C6.5 42.3 14.6 47 24 47z"/>
</svg>